<svg id="_03_-_Stallion" data-name="03 - Stallion" xmlns="http://www.w3.org/2000/svg" width="288" height="136" viewBox="0 0 288 136">
  <defs>
    <style>
      .cls-1 {
        fill-rule: evenodd;
      }
    </style>
  </defs>
  <path id="CODING_DESIGN" data-name="CODING&amp;DESIGN" class="cls-1" d="M1726.55,423.058a8.735,8.735,0,0,0,5.02-1.445l0.35-2.325a7.782,7.782,0,0,1-4.91,1.664,5.506,5.506,0,0,1-5.91-5.874,5.648,5.648,0,0,1,5.96-6,8.843,8.843,0,0,1,4.51,1.272v-2.3a10.1,10.1,0,0,0-4.36-.906c-5.23,0-8.7,3.574-8.7,8.2C1718.51,419.68,1721.59,423.058,1726.55,423.058Zm19.6-15.911a8.038,8.038,0,0,0-8.19,8,7.928,7.928,0,0,0,8.16,7.907,8.049,8.049,0,0,0,8.21-8A7.962,7.962,0,0,0,1746.15,407.147Zm0.07,13.977c-2.96,0-5.67-2.13-5.67-6.071,0-3.6,2.37-5.972,5.5-5.972,2.96,0,5.67,2.154,5.67,6.07C1751.72,418.774,1749.33,421.124,1746.22,421.124Zm19.63-13.977a33.537,33.537,0,0,0-4.68.367V422.69c1.52,0.147,3.25.221,4.24,0.221,8.4,0,10.15-4.9,10.15-8.176C1775.56,411.161,1773.42,407.147,1765.85,407.147Zm-0.02,13.879c-0.67,0-1.58-.049-2.27-0.1v-11.75c0.69-.048,1.62-0.1,2.34-0.1,5.69,0,7.07,3.108,7.07,5.8C1772.97,417.55,1771.62,421.026,1765.83,421.026Zm16.81,1.787h2.39V407.392h-2.39v15.421Zm21.97-15.421v11.137l-10.5-11.137h-1.31v15.421h2.17V411.724l10.5,11.138h1.31v-15.47h-2.17Zm17.31,15.666a10.215,10.215,0,0,0,5.82-1.641v-6.29h-5.92l-0.32,1.787h4.04v3.4a6.6,6.6,0,0,1-3.3.759c-4.02,0-6.04-2.717-6.04-6.046,0-3.525,2.54-5.948,6.29-5.948a9.432,9.432,0,0,1,4.71,1.272v-2.3a11.361,11.361,0,0,0-4.49-.906c-5.42,0-9.1,3.525-9.1,8.1C1813.61,419.753,1816.79,423.058,1821.92,423.058Zm24.61-2.962a10.158,10.158,0,0,0,2.61-7.417h-2.24a8.965,8.965,0,0,1-2.12,6.315,12.447,12.447,0,0,1-3.65-4.553c2.27-.832,4.58-2.007,4.58-4.381,0-1.493-.96-2.913-3.4-2.913a4.1,4.1,0,0,0-4.36,4.21,8.777,8.777,0,0,0,.39,2.4c-2.19.906-4.19,2.374-4.19,4.822,0.03,3.182,2.62,4.48,5.85,4.48a9.634,9.634,0,0,0,4.95-1.445,10.866,10.866,0,0,0,6.14,1.445v-1.934A8.93,8.93,0,0,1,1846.53,420.1Zm-4.37-11.236a1.321,1.321,0,0,1,1.48,1.444c0,1.4-1.45,2.13-3.08,2.693a7.119,7.119,0,0,1-.27-1.811C1840.29,409.644,1841.2,408.86,1842.16,408.86Zm-2.14,12.313c-2.12,0-3.4-1.077-3.43-2.815-0.02-1.273.87-2.35,2.35-3.109a15.292,15.292,0,0,0,4.21,5.189A7.081,7.081,0,0,1,1840.02,421.173Zm21.35-14.026a33.661,33.661,0,0,0-4.68.367V422.69c1.53,0.147,3.25.221,4.24,0.221,8.41,0,10.16-4.9,10.16-8.176C1871.09,411.161,1868.94,407.147,1861.37,407.147Zm-0.02,13.879c-0.67,0-1.58-.049-2.27-0.1v-11.75c0.69-.048,1.63-0.1,2.34-0.1,5.7,0,7.08,3.108,7.08,5.8C1868.5,417.55,1867.14,421.026,1861.35,421.026Zm18.96-.147v-5.263h5.62l0.3-1.811h-5.92v-4.5h6.68l0.32-1.934h-9.39v15.446h9.59l0.32-1.934h-7.52Zm18.17,2.179c3.23,0,5.45-1.812,5.45-4.627,0-5.091-7.22-4.014-7.22-7.27,0-1.273,1.03-2.08,2.69-2.08a6.438,6.438,0,0,1,3.92,1.444v-2.4a7.279,7.279,0,0,0-3.83-.979c-3.27,0-5.3,1.811-5.3,4.381,0,4.847,7.15,3.966,7.15,7.27,0,1.3-1.01,2.2-2.88,2.2a7.562,7.562,0,0,1-4.93-2.252l0.27,2.717A7.632,7.632,0,0,0,1898.48,423.058Zm12.51-.245h2.39V407.392h-2.39v15.421Zm17.8,0.245a10.155,10.155,0,0,0,5.81-1.641v-6.29h-5.91l-0.32,1.787h4.04v3.4a6.623,6.623,0,0,1-3.3.759c-4.02,0-6.04-2.717-6.04-6.046,0-3.525,2.54-5.948,6.28-5.948a9.4,9.4,0,0,1,4.71,1.272v-2.3a11.347,11.347,0,0,0-4.48-.906c-5.43,0-9.1,3.525-9.1,8.1C1920.48,419.753,1923.66,423.058,1928.79,423.058Zm24.95-15.666v11.137l-10.5-11.137h-1.31v15.421h2.17V411.724l10.5,11.138h1.31v-15.47h-2.17Z" transform="translate(-1696.08 -288.047)"/>
  <path class="cls-1" d="M1975.88,324.6V296.632h-28.49v-7.643h35.77V324.6h-7.28Z" transform="translate(-1696.08 -288.047)"/>
  <path id="Rectangle_6_copy" data-name="Rectangle 6 copy" class="cls-1" d="M1704.27,345.856v27.967h28.5v7.643H1697v-35.61h7.27Z" transform="translate(-1696.08 -288.047)"/>
  <path id="HIROKI_KOMORI" data-name="HIROKI   KOMORI" class="cls-1" d="M1727.9,289.676h-7.3v13.43h-13.66v-13.43h-7.32v34.266h7.32V309.153h13.66v14.789h7.3V289.676Zm25.69,34.266V289.676h-7.32v34.266h7.32Zm25.67-28.313h2.22a10.291,10.291,0,0,1,5.23,1.032,3.731,3.731,0,0,1,1.69,3.468,4.092,4.092,0,0,1-1.65,3.61,9.12,9.12,0,0,1-5.13,1.148h-2.36v-9.258Zm3.9,15.164,8.24,13.149h8.12q-2.37-3.375-10.15-14.93a11.11,11.11,0,0,0,4.74-3.691,9.035,9.035,0,0,0,1.68-5.379q0-5.18-3.38-7.723T1782,289.676h-10.05v34.266h7.31V310.793h3.9Zm57.48-17.109q-4.215-4.546-12.17-4.547t-12.22,4.512q-4.26,4.512-4.26,13.066t4.25,13.125q4.245,4.571,12.18,4.571t12.18-4.571q4.245-4.57,4.25-13.078Q1844.85,298.232,1840.64,293.684Zm-18.76,4.418a7.768,7.768,0,0,1,6.59-2.918q8.7,0,8.71,11.578,0,11.554-8.76,11.555a7.7,7.7,0,0,1-6.56-2.906c-1.46-1.938-2.2-4.82-2.2-8.649S1820.4,300.047,1821.88,298.1Zm55.42,6.738,12.03-15.164h-8.12l-9.34,11.649-2.88,4.031v-15.68h-7.32v34.266h7.32V311.707l3.09-2.2,9.04,14.438h8.31Zm33.46,19.1V289.676h-7.32v34.266h7.32ZM1759.7,362.455l12.03-15.164h-8.12l-9.34,11.648-2.88,4.032v-15.68h-7.32v34.266h7.32V369.322l3.09-2.2,9.04,14.438h8.31Zm52.28-11.156q-4.215-4.547-12.17-4.547t-12.21,4.512q-4.26,4.512-4.26,13.066t4.25,13.125q4.245,4.571,12.18,4.57t12.18-4.57q4.245-4.57,4.25-13.078Q1816.2,355.847,1811.98,351.3Zm-18.75,4.418a7.746,7.746,0,0,1,6.58-2.918q8.715,0,8.71,11.578,0,11.554-8.75,11.555a7.728,7.728,0,0,1-6.57-2.907q-2.19-2.905-2.19-8.648T1793.23,355.717Zm60.13,25.84,8.9-26.836h0.21q-0.285,6.468-.31,7.968c-0.03,1-.04,1.883-0.04,2.649v16.219h6.82V347.291h-9.96l-8.66,26.2h-0.14l-8.17-26.2h-9.96v34.266h6.54V365.619q0-2.742-.45-10.945h0.21l8.31,26.883h6.7Zm60.08-30.258q-4.215-4.547-12.17-4.547t-12.21,4.512q-4.275,4.512-4.27,13.066t4.25,13.125q4.26,4.571,12.18,4.57,7.935,0,12.18-4.57t4.25-13.078Q1917.65,355.847,1913.44,351.3Zm-18.76,4.418a7.765,7.765,0,0,1,6.59-2.918q8.715,0,8.71,11.578,0,11.554-8.76,11.555a7.7,7.7,0,0,1-6.56-2.907q-2.19-2.905-2.19-8.648T1894.68,355.717Zm46.14-2.473h2.22a10.329,10.329,0,0,1,5.23,1.031,3.754,3.754,0,0,1,1.69,3.469,4.072,4.072,0,0,1-1.66,3.609,9.052,9.052,0,0,1-5.12,1.149h-2.36v-9.258Zm3.9,15.164,8.23,13.149h8.12q-2.355-3.375-10.15-14.93a11.089,11.089,0,0,0,4.75-3.691,9.026,9.026,0,0,0,1.67-5.379q0-5.18-3.37-7.723t-10.41-2.543H1933.5v34.266h7.32V368.408h3.9Zm36.72,13.149V347.291h-7.32v34.266h7.32Z" transform="translate(-1696.08 -288.047)"/>
</svg>
